<svg xmlns="http://www.w3.org/2000/svg" xmlns:xlink="http://www.w3.org/1999/xlink" width="42px" height="32px" viewBox="0 0 42 32" version="1.1" fill="#fff">
 <path d="M20.9964832,0 C9.39735269,0 0,9.11917531 0,20.3663948 L0,29.0927818 C0,30.6995672 1.34340172,32 2.99584756,32 C4.65059006,32 6.00102529,30.6995672 6.00102529,29.0927818 L6.00102529,20.3663948 C6.00102529,18.7575216 7.33753704,17.4547226 8.99916951,17.4547226 C10.653912,17.4547226 11.9974573,18.7575216 11.9974573,20.3663948 L11.9974573,29.0927818 C11.9974573,30.6995672 13.340859,32 14.9956015,32 C16.6549373,32 17.998339,30.6995672 17.998339,29.0927818 L17.998339,20.3663948 C17.998339,18.7575216 19.3418843,17.4547226 20.9964832,17.4547226 C22.6581157,17.4547226 24.001661,18.7575216 24.001661,20.3663948 L24.001661,29.0927818 C24.001661,30.6995672 25.3450627,32 26.9975085,32 C28.652251,32 29.9956528,30.6995672 29.9956528,29.0927818 L29.9956528,20.3663948 C29.9956528,18.7575216 31.339198,17.4547226 33.0008305,17.4547226 C34.655573,17.4547226 35.9991182,18.7575216 35.9991182,20.3663948 L35.9991182,29.0927818 C35.9991182,30.6995672 37.34252,32 39.0018558,32 C40.6565983,32 42,30.6995672 42,29.0927818 L42,20.3663948 C42,9.11917531 32.5957573,0 20.9964832,0">
 </path>
</svg>